<svg xmlns="http://www.w3.org/2000/svg" width="10" height="10" viewBox="0 0 10 10" fill="none">
  <path d="M5 0C2.245 0 0 2.245 0 5C0 7.755 2.245 10 5 10C7.755 10 10 7.755 10 5C10 2.245 7.755 0 5 0ZM6.92999 3.76L5.26501 6.51C5.10001 6.79 4.82501 6.965 4.51501 6.995C4.48501 7 4.45001 7 4.42001 7C4.15001 7 3.89001 6.885 3.70001 6.675C3.68501 6.655 3.67 6.64 3.655 6.62L3.08499 5.78C2.92999 5.55 2.99 5.24 3.22 5.085C3.45 4.93 3.76001 4.99 3.91501 5.22L4.44 6L6.07001 3.24C6.21501 3.005 6.52001 2.93 6.76001 3.07C6.99501 3.215 7.06999 3.52 6.92999 3.76Z" fill="#21C96E"/>
</svg>