<svg xmlns="http://www.w3.org/2000/svg" width="10" height="10" viewBox="0 0 10 10" fill="none">
<path d="M4.9998 0C4.01094 0 3.04427 0.293245 2.22205 0.842652C1.39984 1.39206 0.759011 2.17295 0.380589 3.08658C0.00216603 4.00021 -0.0968462 5.00555 0.096072 5.97545C0.28899 6.94535 0.765165 7.83627 1.4644 8.53553C2.16363 9.23479 3.05451 9.711 4.02438 9.90392C4.99425 10.0968 5.99955 9.99783 6.91315 9.6194C7.82674 9.24096 8.6076 8.60009 9.15698 7.77785C9.70637 6.9556 9.9996 5.9889 9.9996 5C9.99745 3.67458 9.47 2.40405 8.53283 1.46684C7.59565 0.529622 6.32517 0.00214783 4.9998 0ZM5.49971 7.5H4.4995V6.49975H5.49929L5.49971 7.5ZM6.49949 4.50008C6.49864 4.76499 6.39302 5.01881 6.20571 5.20613C6.01839 5.39345 5.76461 5.49906 5.49971 5.49992V5.99984H4.4995V5.49992C4.50036 5.23501 4.60595 4.98119 4.79326 4.79387C4.98057 4.60655 5.23439 4.50094 5.49929 4.50008V3.99976C5.49929 3.86717 5.44663 3.74001 5.35288 3.64626C5.25913 3.55251 5.13196 3.49984 4.99938 3.49984C4.8668 3.49984 4.73966 3.55251 4.64591 3.64626C4.55216 3.74001 4.4995 3.86717 4.4995 3.99976V4.49967H3.49969V3.99976C3.49641 3.8007 3.53281 3.60299 3.60671 3.41813C3.68062 3.23328 3.79057 3.06499 3.93017 2.92306C4.06977 2.78114 4.23623 2.66842 4.41984 2.59148C4.60344 2.51454 4.80053 2.47491 4.9996 2.47491C5.19868 2.47491 5.39574 2.51454 5.57934 2.59148C5.76295 2.66842 5.92941 2.78114 6.06901 2.92306C6.20862 3.06499 6.31859 3.23328 6.39249 3.41813C6.4664 3.60299 6.50277 3.8007 6.49949 3.99976V4.50008Z" fill="#A0AEC7"/>
</svg>